M48
;Layer_Color=9474304
;FILE_FORMAT=2:5
INCH,LZ
;TYPE=PLATED
T1F00S00C0.02800
T2F00S00C0.03937
T3F00S00C0.04134
%
T01
X0477Y01985
X04805Y02485
X04875Y02525
X0476018Y02705
X0574Y02725
X05765Y0301
X0561Y0242
X0461Y02455
X04535Y0246
X04435
X0439Y0228
X04575
X0446Y02155
X0444Y02045
X04575Y0193
X0413Y02185
X04065Y02525
X03925Y0242
X0397Y02725
X03605Y0282
X043874Y026474
X0373Y03265
X03935Y03615
X0486Y04095
X0533Y0383
X0555Y0365
X0572Y03375
T02
X0517445Y0294094
Y0306299
X0435555
Y0294094
X04155Y02955
Y03055
Y02855
Y02755
Y02655
X03855
Y02755
Y02855
Y02955
Y03055
Y03155
Y03255
Y03355
X04155
Y03255
Y03155
T03
X0535Y0284
X0545
X0555
X0565
Y0314
X0555
X0545
X0535
M30
