G04*
G04 #@! TF.GenerationSoftware,Altium Limited,Altium Designer,18.1.11 (251)*
G04*
G04 Layer_Color=16711935*
%FSLAX25Y25*%
%MOIN*%
G70*
G01*
G75*
%ADD10C,0.00787*%
%ADD51C,0.00394*%
D10*
X466642Y223358D02*
X484358D01*
X466642Y205642D02*
Y223358D01*
Y205642D02*
X484358D01*
Y223358D01*
D51*
X480633Y258461D02*
X480633Y253539D01*
X472759D02*
X480633D01*
X472759Y258461D02*
X472759Y253539D01*
X472759Y258461D02*
X480633D01*
X460437Y253168D02*
Y258089D01*
X452563Y253168D02*
X460437D01*
X452563D02*
Y258089D01*
X460437D01*
X438937Y253539D02*
Y258461D01*
X431063Y253539D02*
X438937D01*
X431063D02*
Y258461D01*
X438937D01*
X571701Y231017D02*
X571930Y229548D01*
X571081Y230168D02*
X573625Y228310D01*
X577340Y233397D01*
X574797Y235255D02*
X577340Y233397D01*
X571081Y230168D02*
X574797Y235255D01*
X510892Y189886D02*
X511570Y191209D01*
X510570Y190887D02*
X511535Y187889D01*
X517531Y189821D01*
X516565Y192818D02*
X517531Y189821D01*
X510570Y190887D02*
X516565Y192818D01*
X436166Y189631D02*
X437492Y190302D01*
X435512Y187636D02*
X436493Y190629D01*
X435512Y187636D02*
X441499Y185675D01*
X442479Y188668D01*
X436493Y190629D02*
X442479Y188668D01*
X377125Y232724D02*
X378592Y232488D01*
X375424Y231495D02*
X377976Y233340D01*
X375424Y231495D02*
X379113Y226390D01*
X381666Y228234D01*
X377976Y233340D02*
X381666Y228234D01*
X357948Y303348D02*
X358997Y302294D01*
X355850Y303354D02*
X358999Y303346D01*
X355834Y297054D02*
X355850Y303354D01*
X355834Y297054D02*
X358983Y297046D01*
X358999Y303346D01*
X592049Y298106D02*
X593098Y297052D01*
X592046Y297054D02*
X595196Y297046D01*
X595212Y303346D01*
X592062Y303354D02*
X595212Y303346D01*
X592046Y297054D02*
X592062Y303354D01*
X571022Y370312D02*
X572489Y370075D01*
X571637Y369460D02*
X574190Y371304D01*
X570501Y376410D02*
X574190Y371304D01*
X567948Y374565D02*
X570501Y376410D01*
X567948Y374565D02*
X571637Y369460D01*
X515735Y410662D02*
X517056Y411345D01*
X516737Y410344D02*
X517692Y413345D01*
X511689Y415254D02*
X517692Y413345D01*
X510734Y412252D02*
X511689Y415254D01*
X510734Y412252D02*
X516737Y410344D01*
X441525Y412008D02*
X442203Y413331D01*
X441560Y415328D02*
X442526Y412330D01*
X435564Y413397D02*
X441560Y415328D01*
X435564Y413397D02*
X436530Y410399D01*
X442526Y412330D01*
X381735Y374509D02*
X381964Y373040D01*
X380041Y375746D02*
X382584Y373889D01*
X376325Y370660D02*
X380041Y375746D01*
X376325Y370660D02*
X378869Y368802D01*
X382584Y373889D01*
X380000Y340744D02*
X421000D01*
X380000Y260256D02*
Y340744D01*
Y260256D02*
X421000D01*
Y340744D01*
X416000D02*
X421000Y335744D01*
X529606Y278606D02*
Y319394D01*
Y278606D02*
X570394D01*
Y319394D01*
X529606D02*
X570394D01*
X529606Y314394D02*
X534606Y319394D01*
M02*
