G04*
G04 #@! TF.GenerationSoftware,Altium Limited,Altium Designer,18.1.11 (251)*
G04*
G04 Layer_Color=8388736*
%FSLAX25Y25*%
%MOIN*%
G70*
G01*
G75*
G04:AMPARAMS|DCode=23|XSize=45.4mil|YSize=43.43mil|CornerRadius=0mil|HoleSize=0mil|Usage=FLASHONLY|Rotation=143.854|XOffset=0mil|YOffset=0mil|HoleType=Round|Shape=Rectangle|*
%AMROTATEDRECTD23*
4,1,4,0.03114,0.00415,0.00552,-0.03093,-0.03114,-0.00415,-0.00552,0.03093,0.03114,0.00415,0.0*
%
%ADD23ROTATEDRECTD23*%

G04:AMPARAMS|DCode=24|XSize=45.4mil|YSize=43.43mil|CornerRadius=0mil|HoleSize=0mil|Usage=FLASHONLY|Rotation=107.854|XOffset=0mil|YOffset=0mil|HoleType=Round|Shape=Rectangle|*
%AMROTATEDRECTD24*
4,1,4,0.02763,-0.01495,-0.01371,-0.02827,-0.02763,0.01495,0.01371,0.02827,0.02763,-0.01495,0.0*
%
%ADD24ROTATEDRECTD24*%

G04:AMPARAMS|DCode=25|XSize=45.4mil|YSize=43.43mil|CornerRadius=0mil|HoleSize=0mil|Usage=FLASHONLY|Rotation=71.854|XOffset=0mil|YOffset=0mil|HoleType=Round|Shape=Rectangle|*
%AMROTATEDRECTD25*
4,1,4,0.01357,-0.02834,-0.02771,-0.01481,-0.01357,0.02834,0.02771,0.01481,0.01357,-0.02834,0.0*
%
%ADD25ROTATEDRECTD25*%

G04:AMPARAMS|DCode=26|XSize=45.4mil|YSize=43.43mil|CornerRadius=0mil|HoleSize=0mil|Usage=FLASHONLY|Rotation=35.854|XOffset=0mil|YOffset=0mil|HoleType=Round|Shape=Rectangle|*
%AMROTATEDRECTD26*
4,1,4,-0.00568,-0.03090,-0.03112,0.00431,0.00568,0.03090,0.03112,-0.00431,-0.00568,-0.03090,0.0*
%
%ADD26ROTATEDRECTD26*%

G04:AMPARAMS|DCode=27|XSize=45.4mil|YSize=43.43mil|CornerRadius=0mil|HoleSize=0mil|Usage=FLASHONLY|Rotation=359.854|XOffset=0mil|YOffset=0mil|HoleType=Round|Shape=Rectangle|*
%AMROTATEDRECTD27*
4,1,4,-0.02276,-0.02166,-0.02265,0.02177,0.02276,0.02166,0.02265,-0.02177,-0.02276,-0.02166,0.0*
%
%ADD27ROTATEDRECTD27*%

G04:AMPARAMS|DCode=28|XSize=65mil|YSize=44mil|CornerRadius=0mil|HoleSize=0mil|Usage=FLASHONLY|Rotation=234.000|XOffset=0mil|YOffset=0mil|HoleType=Round|Shape=Rectangle|*
%AMROTATEDRECTD28*
4,1,4,0.00131,0.03922,0.03690,0.01336,-0.00131,-0.03922,-0.03690,-0.01336,0.00131,0.03922,0.0*
%
%ADD28ROTATEDRECTD28*%

G04:AMPARAMS|DCode=29|XSize=65mil|YSize=44mil|CornerRadius=0mil|HoleSize=0mil|Usage=FLASHONLY|Rotation=198.000|XOffset=0mil|YOffset=0mil|HoleType=Round|Shape=Rectangle|*
%AMROTATEDRECTD29*
4,1,4,0.02411,0.03097,0.03771,-0.01088,-0.02411,-0.03097,-0.03771,0.01088,0.02411,0.03097,0.0*
%
%ADD29ROTATEDRECTD29*%

G04:AMPARAMS|DCode=30|XSize=65mil|YSize=44mil|CornerRadius=0mil|HoleSize=0mil|Usage=FLASHONLY|Rotation=306.000|XOffset=0mil|YOffset=0mil|HoleType=Round|Shape=Rectangle|*
%AMROTATEDRECTD30*
4,1,4,-0.03690,0.01336,-0.00131,0.03922,0.03690,-0.01336,0.00131,-0.03922,-0.03690,0.01336,0.0*
%
%ADD30ROTATEDRECTD30*%

G04:AMPARAMS|DCode=31|XSize=65mil|YSize=44mil|CornerRadius=0mil|HoleSize=0mil|Usage=FLASHONLY|Rotation=162.000|XOffset=0mil|YOffset=0mil|HoleType=Round|Shape=Rectangle|*
%AMROTATEDRECTD31*
4,1,4,0.03771,0.01088,0.02411,-0.03097,-0.03771,-0.01088,-0.02411,0.03097,0.03771,0.01088,0.0*
%
%ADD31ROTATEDRECTD31*%

%ADD32R,0.04400X0.06500*%
%ADD33R,0.06706X0.06706*%
%ADD34C,0.06706*%
%ADD35R,0.07001X0.07001*%
%ADD36C,0.07001*%
%ADD37C,0.09855*%
%ADD38C,0.05800*%
D23*
X576068Y234326D02*
D03*
X572441Y229360D02*
D03*
X377597Y369731D02*
D03*
X381224Y374697D02*
D03*
D24*
X517048Y191319D02*
D03*
X511195Y189434D02*
D03*
X436047Y411898D02*
D03*
X441900Y413784D02*
D03*
D25*
X441989Y187171D02*
D03*
X436145Y189086D02*
D03*
X511211Y413753D02*
D03*
X517072Y411890D02*
D03*
D26*
X380390Y227312D02*
D03*
X376788Y232296D02*
D03*
X569224Y375488D02*
D03*
X572826Y370503D02*
D03*
D27*
X357408Y297050D02*
D03*
X357424Y303200D02*
D03*
X593637Y303350D02*
D03*
X593622Y297200D02*
D03*
D28*
X401123Y208567D02*
D03*
X406301Y204805D02*
D03*
X540890Y397628D02*
D03*
X546068Y393866D02*
D03*
D29*
X363863Y261820D02*
D03*
X361885Y267906D02*
D03*
X586989Y338957D02*
D03*
X585011Y345043D02*
D03*
D30*
X546911Y206619D02*
D03*
X552089Y210381D02*
D03*
X402772Y393672D02*
D03*
X407950Y397434D02*
D03*
D31*
X363489Y342543D02*
D03*
X361511Y336457D02*
D03*
X590042Y270982D02*
D03*
X588065Y264896D02*
D03*
D32*
X480200Y183000D02*
D03*
X473800Y183000D02*
D03*
X478700Y418630D02*
D03*
X472300Y418630D02*
D03*
D33*
X415500Y335500D02*
D03*
D34*
Y325500D02*
D03*
Y315500D02*
D03*
Y305500D02*
D03*
Y295500D02*
D03*
Y285500D02*
D03*
Y275500D02*
D03*
Y265500D02*
D03*
X385500D02*
D03*
Y275500D02*
D03*
Y285500D02*
D03*
Y295500D02*
D03*
Y305500D02*
D03*
Y315500D02*
D03*
Y325500D02*
D03*
Y335500D02*
D03*
D35*
X535000Y314000D02*
D03*
D36*
X545000D02*
D03*
X555000D02*
D03*
X565000D02*
D03*
Y284000D02*
D03*
X555000D02*
D03*
X545000D02*
D03*
X535000D02*
D03*
D37*
X517445Y294094D02*
D03*
Y306299D02*
D03*
X435555D02*
D03*
Y294094D02*
D03*
D38*
X457500Y228000D02*
D03*
X446000Y215500D02*
D03*
X453500Y246000D02*
D03*
X461000Y245500D02*
D03*
X443500Y246000D02*
D03*
X457500Y193000D02*
D03*
X439000Y228000D02*
D03*
X406500Y252500D02*
D03*
X413000Y218500D02*
D03*
X555000Y365000D02*
D03*
X533000Y383000D02*
D03*
X397000Y272500D02*
D03*
X480500Y248500D02*
D03*
X373000Y326500D02*
D03*
X360500Y282000D02*
D03*
X444000Y204500D02*
D03*
X487500Y252500D02*
D03*
X476018Y270500D02*
D03*
X438740Y264740D02*
D03*
X486000Y409500D02*
D03*
X393500Y361500D02*
D03*
X572000Y337500D02*
D03*
X576500Y301000D02*
D03*
X574000Y272500D02*
D03*
X561000Y242000D02*
D03*
X477000Y198500D02*
D03*
X392500Y242000D02*
D03*
M02*
