G04*
G04 #@! TF.GenerationSoftware,Altium Limited,Altium Designer,18.1.11 (251)*
G04*
G04 Layer_Color=32768*
%FSLAX25Y25*%
%MOIN*%
G70*
G01*
G75*
%ADD51C,0.00394*%
%ADD53C,0.00197*%
D51*
X428862Y262992D02*
Y337008D01*
X524138D01*
Y262992D02*
Y337008D01*
X428862Y262992D02*
X524138D01*
D53*
X483389Y252063D02*
Y259937D01*
X470003Y252063D02*
X483389Y252063D01*
X470003Y252063D02*
Y259937D01*
X483389Y259937D01*
X463193Y251692D02*
X463193Y259566D01*
X449807Y251692D02*
X463193Y251692D01*
X449807Y251692D02*
X449807Y259566D01*
X463193Y259566D01*
X441693Y252063D02*
Y259937D01*
X428307Y252063D02*
X441693D01*
X428307D02*
Y259937D01*
X441693D01*
X567322Y228526D02*
X573204Y224230D01*
X581099Y235039D01*
X575218Y239335D02*
X581099Y235039D01*
X567322Y228526D02*
X575218Y239335D01*
X506563Y191768D02*
X508796Y184835D01*
X521537Y188939D01*
X519304Y195872D02*
X521537Y188939D01*
X506563Y191768D02*
X519304Y195872D01*
X431502Y186776D02*
X433770Y193697D01*
X431502Y186776D02*
X444222Y182607D01*
X446490Y189528D01*
X433770Y193697D02*
X446490Y189528D01*
X371673Y233156D02*
X377576Y237422D01*
X371673Y233156D02*
X379513Y222307D01*
X385417Y226573D01*
X377576Y237422D02*
X385417Y226573D01*
X353792Y306902D02*
X361075Y306884D01*
X353758Y293516D02*
X353792Y306902D01*
X353758Y293516D02*
X361041Y293498D01*
X361075Y306884D01*
X589970Y293516D02*
X597254Y293498D01*
X597288Y306884D01*
X590004Y306902D02*
X597288Y306884D01*
X589970Y293516D02*
X590004Y306902D01*
X572037Y365377D02*
X577941Y369643D01*
X570100Y380493D02*
X577941Y369643D01*
X564197Y376226D02*
X570100Y380493D01*
X564197Y376226D02*
X572037Y365377D01*
X519488Y407300D02*
X521695Y414241D01*
X508938Y418297D02*
X521695Y414241D01*
X506731Y411356D02*
X508938Y418297D01*
X506731Y411356D02*
X519488Y407300D01*
X444299Y418382D02*
X446532Y411449D01*
X431558Y414278D02*
X444299Y418382D01*
X431558Y414278D02*
X433791Y407345D01*
X446532Y411449D01*
X380462Y379827D02*
X386343Y375531D01*
X372566Y369018D02*
X380462Y379827D01*
X372566Y369018D02*
X378448Y364721D01*
X386343Y375531D01*
X379016Y341728D02*
X421984D01*
X379016Y259272D02*
Y341728D01*
Y259272D02*
X421984D01*
Y341728D01*
X528622Y277622D02*
Y320378D01*
Y277622D02*
X571378D01*
Y320378D01*
X528622D02*
X571378D01*
M02*
