G04*
G04 #@! TF.GenerationSoftware,Altium Limited,Altium Designer,18.1.11 (251)*
G04*
G04 Layer_Physical_Order=1*
G04 Layer_Color=255*
%FSLAX25Y25*%
%MOIN*%
G70*
G01*
G75*
%ADD12C,0.01000*%
G04:AMPARAMS|DCode=13|XSize=37.4mil|YSize=35.43mil|CornerRadius=0mil|HoleSize=0mil|Usage=FLASHONLY|Rotation=143.854|XOffset=0mil|YOffset=0mil|HoleType=Round|Shape=Rectangle|*
%AMROTATEDRECTD13*
4,1,4,0.02555,0.00328,0.00465,-0.02534,-0.02555,-0.00328,-0.00465,0.02534,0.02555,0.00328,0.0*
%
%ADD13ROTATEDRECTD13*%

G04:AMPARAMS|DCode=14|XSize=37.4mil|YSize=35.43mil|CornerRadius=0mil|HoleSize=0mil|Usage=FLASHONLY|Rotation=107.854|XOffset=0mil|YOffset=0mil|HoleType=Round|Shape=Rectangle|*
%AMROTATEDRECTD14*
4,1,4,0.02260,-0.01237,-0.01113,-0.02323,-0.02260,0.01237,0.01113,0.02323,0.02260,-0.01237,0.0*
%
%ADD14ROTATEDRECTD14*%

G04:AMPARAMS|DCode=15|XSize=37.4mil|YSize=35.43mil|CornerRadius=0mil|HoleSize=0mil|Usage=FLASHONLY|Rotation=71.854|XOffset=0mil|YOffset=0mil|HoleType=Round|Shape=Rectangle|*
%AMROTATEDRECTD15*
4,1,4,0.01101,-0.02329,-0.02266,-0.01225,-0.01101,0.02329,0.02266,0.01225,0.01101,-0.02329,0.0*
%
%ADD15ROTATEDRECTD15*%

G04:AMPARAMS|DCode=16|XSize=37.4mil|YSize=35.43mil|CornerRadius=0mil|HoleSize=0mil|Usage=FLASHONLY|Rotation=35.854|XOffset=0mil|YOffset=0mil|HoleType=Round|Shape=Rectangle|*
%AMROTATEDRECTD16*
4,1,4,-0.00478,-0.02531,-0.02553,0.00341,0.00478,0.02531,0.02553,-0.00341,-0.00478,-0.02531,0.0*
%
%ADD16ROTATEDRECTD16*%

G04:AMPARAMS|DCode=17|XSize=37.4mil|YSize=35.43mil|CornerRadius=0mil|HoleSize=0mil|Usage=FLASHONLY|Rotation=359.854|XOffset=0mil|YOffset=0mil|HoleType=Round|Shape=Rectangle|*
%AMROTATEDRECTD17*
4,1,4,-0.01875,-0.01767,-0.01866,0.01776,0.01875,0.01767,0.01866,-0.01776,-0.01875,-0.01767,0.0*
%
%ADD17ROTATEDRECTD17*%

G04:AMPARAMS|DCode=18|XSize=57mil|YSize=36mil|CornerRadius=0mil|HoleSize=0mil|Usage=FLASHONLY|Rotation=234.000|XOffset=0mil|YOffset=0mil|HoleType=Round|Shape=Rectangle|*
%AMROTATEDRECTD18*
4,1,4,0.00219,0.03364,0.03131,0.01248,-0.00219,-0.03364,-0.03131,-0.01248,0.00219,0.03364,0.0*
%
%ADD18ROTATEDRECTD18*%

G04:AMPARAMS|DCode=19|XSize=57mil|YSize=36mil|CornerRadius=0mil|HoleSize=0mil|Usage=FLASHONLY|Rotation=198.000|XOffset=0mil|YOffset=0mil|HoleType=Round|Shape=Rectangle|*
%AMROTATEDRECTD19*
4,1,4,0.02154,0.02593,0.03267,-0.00831,-0.02154,-0.02593,-0.03267,0.00831,0.02154,0.02593,0.0*
%
%ADD19ROTATEDRECTD19*%

G04:AMPARAMS|DCode=20|XSize=57mil|YSize=36mil|CornerRadius=0mil|HoleSize=0mil|Usage=FLASHONLY|Rotation=306.000|XOffset=0mil|YOffset=0mil|HoleType=Round|Shape=Rectangle|*
%AMROTATEDRECTD20*
4,1,4,-0.03131,0.01248,-0.00219,0.03364,0.03131,-0.01248,0.00219,-0.03364,-0.03131,0.01248,0.0*
%
%ADD20ROTATEDRECTD20*%

G04:AMPARAMS|DCode=21|XSize=57mil|YSize=36mil|CornerRadius=0mil|HoleSize=0mil|Usage=FLASHONLY|Rotation=162.000|XOffset=0mil|YOffset=0mil|HoleType=Round|Shape=Rectangle|*
%AMROTATEDRECTD21*
4,1,4,0.03267,0.00831,0.02154,-0.02593,-0.03267,-0.00831,-0.02154,0.02593,0.03267,0.00831,0.0*
%
%ADD21ROTATEDRECTD21*%

%ADD22R,0.03600X0.05700*%
%ADD39R,0.05906X0.05906*%
%ADD40C,0.05906*%
%ADD41R,0.06201X0.06201*%
%ADD42C,0.06201*%
%ADD43C,0.09055*%
%ADD44C,0.05000*%
D12*
X446000Y215500D02*
X458000Y227500D01*
X457500Y228000D02*
X458000Y227500D01*
X453500Y246000D02*
X454843D01*
X482000Y241500D02*
X487500Y247000D01*
X459343Y241500D02*
X482000D01*
X451000Y255500D02*
X461000Y245500D01*
X443500Y246000D02*
Y248000D01*
X451000Y255500D01*
X454843Y246000D02*
X459343Y241500D01*
X438740Y264740D02*
X464260D01*
X480500Y248500D01*
X438740Y264740D02*
X444500Y270500D01*
X476018D01*
X415500Y275500D02*
X563500D01*
X574104Y264896D01*
X441989Y187171D02*
X451671D01*
X457500Y193000D01*
X444000Y196941D02*
Y204500D01*
X436145Y189086D02*
X444000Y196941D01*
X408953Y258047D02*
X439000Y228000D01*
X401123Y208567D02*
Y281123D01*
X406500Y238500D02*
Y252500D01*
Y238500D02*
X436433Y208567D01*
X406301Y204805D02*
X413000Y218500D01*
X408953Y258047D02*
Y279953D01*
X436433Y208567D02*
X499800D01*
X408953Y279953D02*
X417344D01*
X417750Y279547D01*
X421953D01*
Y300047D01*
X411047D02*
X421953D01*
X411047D02*
Y327344D01*
X415500Y331797D01*
Y335500D01*
Y305500D02*
X429000Y319000D01*
X484457D01*
X508457Y343000D01*
X553987D01*
X593637Y303350D01*
X567323Y365000D02*
X572826Y370503D01*
X555000Y365000D02*
X567323D01*
X415500Y325500D02*
X481157D01*
X537000Y381343D01*
Y384799D01*
X546068Y393866D01*
X533000Y383000D02*
Y389738D01*
X540890Y397628D01*
X397000Y272500D02*
Y294000D01*
X385500Y305500D02*
X397000Y294000D01*
X407950Y368950D02*
Y397434D01*
X381000Y342000D02*
X407950Y368950D01*
X381000Y290000D02*
Y342000D01*
Y290000D02*
X385500Y285500D01*
X365143Y340890D02*
X377597D01*
Y273403D02*
Y340890D01*
Y273403D02*
X385500Y265500D01*
X371468Y326500D02*
X373000D01*
X361511Y336457D02*
X371468Y326500D01*
X360500Y269292D02*
Y282000D01*
Y269292D02*
X361885Y267906D01*
X358663Y303200D02*
X368863Y293000D01*
X357424Y303200D02*
X358663D01*
X368863Y266820D02*
Y293000D01*
X363489Y342543D02*
X365143Y340890D01*
X487500Y247000D02*
Y252500D01*
X401123Y281123D02*
X415500Y295500D01*
X499800Y208567D02*
X517048Y191319D01*
X510682Y405500D02*
X517072Y411890D01*
X475500Y405500D02*
X510682D01*
X472300Y408700D02*
X475500Y405500D01*
X478700Y416800D02*
X486000Y409500D01*
X472300Y408700D02*
Y418630D01*
X478700Y416800D02*
Y418630D01*
X574104Y264896D02*
X588065D01*
X545000Y314000D02*
X555000Y284000D01*
X357408Y297050D02*
X359647Y282478D01*
X363863Y261820D02*
X368863Y266820D01*
X381224Y374697D02*
X393500Y361500D01*
X572000Y337500D02*
X585011Y345043D01*
X576500Y301000D02*
X593622Y297200D01*
X574000Y272500D02*
X590042Y270982D01*
X561000Y242000D02*
X572441Y229360D01*
X477000Y198500D02*
X480200Y183000D01*
X376788Y232296D02*
X392500Y242000D01*
X380390Y227312D02*
X401123Y208567D01*
X363863Y261820D02*
X376788Y232296D01*
X357424Y303200D02*
X361511Y336457D01*
X363489Y342543D02*
X377597Y369731D01*
X381224Y374697D02*
X402772Y393672D01*
X407950Y397434D02*
X436047Y411898D01*
X441900Y413784D02*
X472300Y418630D01*
X478700Y418630D02*
X511211Y413753D01*
X517072Y411890D02*
X540890Y397628D01*
X546068Y393866D02*
X569224Y375488D01*
X572826Y370503D02*
X585011Y345043D01*
X586989Y338957D02*
X593637Y303350D01*
X590042Y270982D02*
X593622Y297200D01*
X576068Y234326D02*
X588065Y264896D01*
X552089Y210381D02*
X572441Y229360D01*
X517048Y191319D02*
X546911Y206619D01*
X480200Y183000D02*
X511195Y189434D01*
X441989Y187171D02*
X473800Y183000D01*
X406301Y204805D02*
X436145Y189086D01*
X380390Y227312D02*
X381101Y226601D01*
D13*
X576068Y234326D02*
D03*
X572441Y229360D02*
D03*
X377597Y369731D02*
D03*
X381224Y374697D02*
D03*
D14*
X517048Y191319D02*
D03*
X511195Y189434D02*
D03*
X436047Y411898D02*
D03*
X441900Y413784D02*
D03*
D15*
X441989Y187171D02*
D03*
X436145Y189086D02*
D03*
X511211Y413753D02*
D03*
X517072Y411890D02*
D03*
D16*
X380390Y227312D02*
D03*
X376788Y232296D02*
D03*
X569224Y375488D02*
D03*
X572826Y370503D02*
D03*
D17*
X357408Y297050D02*
D03*
X357424Y303200D02*
D03*
X593637Y303350D02*
D03*
X593622Y297200D02*
D03*
D18*
X401123Y208567D02*
D03*
X406301Y204805D02*
D03*
X540890Y397628D02*
D03*
X546068Y393866D02*
D03*
D19*
X363863Y261820D02*
D03*
X361885Y267906D02*
D03*
X586989Y338957D02*
D03*
X585011Y345043D02*
D03*
D20*
X546911Y206619D02*
D03*
X552089Y210381D02*
D03*
X402772Y393672D02*
D03*
X407950Y397434D02*
D03*
D21*
X363489Y342543D02*
D03*
X361511Y336457D02*
D03*
X590042Y270982D02*
D03*
X588065Y264896D02*
D03*
D22*
X480200Y183000D02*
D03*
X473800Y183000D02*
D03*
X478700Y418630D02*
D03*
X472300Y418630D02*
D03*
D39*
X415500Y335500D02*
D03*
D40*
Y325500D02*
D03*
Y315500D02*
D03*
Y305500D02*
D03*
Y295500D02*
D03*
Y285500D02*
D03*
Y275500D02*
D03*
Y265500D02*
D03*
X385500D02*
D03*
Y275500D02*
D03*
Y285500D02*
D03*
Y295500D02*
D03*
Y305500D02*
D03*
Y315500D02*
D03*
Y325500D02*
D03*
Y335500D02*
D03*
D41*
X535000Y314000D02*
D03*
D42*
X545000D02*
D03*
X555000D02*
D03*
X565000D02*
D03*
Y284000D02*
D03*
X555000D02*
D03*
X545000D02*
D03*
X535000D02*
D03*
D43*
X517445Y294094D02*
D03*
Y306299D02*
D03*
X435555D02*
D03*
Y294094D02*
D03*
D44*
X457500Y228000D02*
D03*
X446000Y215500D02*
D03*
X453500Y246000D02*
D03*
X461000Y245500D02*
D03*
X443500Y246000D02*
D03*
X457500Y193000D02*
D03*
X439000Y228000D02*
D03*
X406500Y252500D02*
D03*
X413000Y218500D02*
D03*
X555000Y365000D02*
D03*
X533000Y383000D02*
D03*
X397000Y272500D02*
D03*
X480500Y248500D02*
D03*
X373000Y326500D02*
D03*
X360500Y282000D02*
D03*
X444000Y204500D02*
D03*
X487500Y252500D02*
D03*
X476018Y270500D02*
D03*
X438740Y264740D02*
D03*
X486000Y409500D02*
D03*
X393500Y361500D02*
D03*
X572000Y337500D02*
D03*
X576500Y301000D02*
D03*
X574000Y272500D02*
D03*
X561000Y242000D02*
D03*
X477000Y198500D02*
D03*
X392500Y242000D02*
D03*
M02*
