G04*
G04 #@! TF.GenerationSoftware,Altium Limited,Altium Designer,18.1.11 (251)*
G04*
G04 Layer_Color=65535*
%FSLAX25Y25*%
%MOIN*%
G70*
G01*
G75*
%ADD10C,0.00787*%
%ADD11C,0.01575*%
%ADD12C,0.01000*%
D10*
X573118Y224780D02*
X578691Y232410D01*
X567872Y228612D02*
X573118Y224780D01*
X567872Y228612D02*
X573446Y236242D01*
X509050Y185331D02*
X518044Y188228D01*
X507059Y191514D02*
X509050Y185331D01*
X507059Y191514D02*
X516053Y194411D01*
X431998Y187027D02*
X440977Y184085D01*
X431998Y187027D02*
X434022Y193200D01*
X443001Y190258D01*
X372223Y233068D02*
X377757Y225410D01*
X372223Y233068D02*
X377488Y236873D01*
X383022Y229215D01*
X354160Y297059D02*
X354185Y306507D01*
X360681Y306491D01*
X360656Y297042D02*
X360681Y306491D01*
X596861Y293893D02*
X596885Y303341D01*
X590365Y293909D02*
X596861Y293893D01*
X590365Y293909D02*
X590389Y303358D01*
X571857Y377390D02*
X577391Y369732D01*
X572126Y365927D02*
X577391Y369732D01*
X566592Y373585D02*
X572126Y365927D01*
X512196Y416849D02*
X521200Y413985D01*
X519232Y407795D02*
X521200Y413985D01*
X510227Y410658D02*
X519232Y407795D01*
X435051Y414990D02*
X444045Y417887D01*
X446036Y411703D01*
X437043Y408807D02*
X446036Y411703D01*
X374974Y371647D02*
X380547Y379277D01*
X385793Y375445D01*
X380220Y367815D02*
X385793Y375445D01*
D11*
X425575Y376795D02*
Y368924D01*
X428199Y371548D01*
X430823Y368924D01*
Y376795D01*
X434758Y374172D02*
X437382D01*
X438694Y372860D01*
Y368924D01*
X434758D01*
X433446Y370236D01*
X434758Y371548D01*
X438694D01*
X441318Y368924D02*
X443942D01*
X442630D01*
Y376795D01*
X441318D01*
X449189Y375483D02*
Y374172D01*
X447877D01*
X450501D01*
X449189D01*
Y370236D01*
X450501Y368924D01*
X455749D02*
X458373D01*
X459685Y370236D01*
Y372860D01*
X458373Y374172D01*
X455749D01*
X454437Y372860D01*
Y370236D01*
X455749Y368924D01*
X462308D02*
Y374172D01*
X466244D01*
X467556Y372860D01*
Y368924D01*
X483299Y376795D02*
X478051D01*
Y372860D01*
X480675D01*
X478051D01*
Y368924D01*
X487235Y374172D02*
X489858D01*
X491170Y372860D01*
Y368924D01*
X487235D01*
X485923Y370236D01*
X487235Y371548D01*
X491170D01*
X493794Y368924D02*
Y374172D01*
X495106D01*
X496418Y372860D01*
Y368924D01*
Y372860D01*
X497730Y374172D01*
X499042Y372860D01*
Y368924D01*
X501666D02*
X504290D01*
X502978D01*
Y374172D01*
X501666D01*
X508225Y368924D02*
X510849D01*
X509537D01*
Y376795D01*
X508225D01*
X514785Y374172D02*
Y370236D01*
X516097Y368924D01*
X520033D01*
Y367612D01*
X518721Y366300D01*
X517409D01*
X520033Y368924D02*
Y374172D01*
X430823Y359634D02*
X429510Y360946D01*
X426887D01*
X425575Y359634D01*
Y354387D01*
X426887Y353075D01*
X429510D01*
X430823Y354387D01*
X433446Y360946D02*
Y353075D01*
Y357011D01*
X434758Y358322D01*
X437382D01*
X438694Y357011D01*
Y353075D01*
X441318Y358322D02*
Y353075D01*
Y355699D01*
X442630Y357011D01*
X443942Y358322D01*
X445254D01*
X449189Y353075D02*
X451813D01*
X450501D01*
Y358322D01*
X449189D01*
X455749Y353075D02*
X459685D01*
X460996Y354387D01*
X459685Y355699D01*
X457061D01*
X455749Y357011D01*
X457061Y358322D01*
X460996D01*
X464932Y359634D02*
Y358322D01*
X463620D01*
X466244D01*
X464932D01*
Y354387D01*
X466244Y353075D01*
X470180D02*
Y358322D01*
X471492D01*
X472804Y357011D01*
Y353075D01*
Y357011D01*
X474116Y358322D01*
X475427Y357011D01*
Y353075D01*
X479363Y358322D02*
X481987D01*
X483299Y357011D01*
Y353075D01*
X479363D01*
X478051Y354387D01*
X479363Y355699D01*
X483299D01*
X485923Y353075D02*
X489858D01*
X491170Y354387D01*
X489858Y355699D01*
X487235D01*
X485923Y357011D01*
X487235Y358322D01*
X491170D01*
X506913Y353075D02*
X501666D01*
X506913Y358322D01*
Y359634D01*
X505602Y360946D01*
X502978D01*
X501666Y359634D01*
X509537D02*
X510849Y360946D01*
X513473D01*
X514785Y359634D01*
Y354387D01*
X513473Y353075D01*
X510849D01*
X509537Y354387D01*
Y359634D01*
X517409Y353075D02*
X520033D01*
X518721D01*
Y360946D01*
X517409Y359634D01*
X523968Y354387D02*
X525280Y353075D01*
X527904D01*
X529216Y354387D01*
Y359634D01*
X527904Y360946D01*
X525280D01*
X523968Y359634D01*
Y358322D01*
X525280Y357011D01*
X529216D01*
D12*
X431646Y403705D02*
X433500Y398000D01*
X437303Y399236D01*
X441154Y406794D02*
X437351Y405558D01*
X439205Y399853D01*
X443008Y401089D01*
X438278Y402706D02*
X440179Y403324D01*
X443055Y407411D02*
X444909Y401707D01*
X447761Y402634D01*
X448403Y403893D01*
X447167Y407696D01*
X445908Y408338D01*
X443055Y407411D01*
X450305Y404511D02*
X451564Y403869D01*
X453466Y404487D01*
X454108Y405747D01*
X452872Y409550D01*
X451612Y410192D01*
X449711Y409574D01*
X449069Y408314D01*
X449378Y407364D01*
X450637Y406722D01*
X453490Y407648D01*
X379148Y359526D02*
X384000Y356000D01*
X386350Y359235D01*
X385023Y367613D02*
X382673Y364378D01*
X387526Y360853D01*
X389876Y364088D01*
X385099Y362615D02*
X386275Y364233D01*
X386199Y369231D02*
X391051Y365705D01*
X392814Y368131D01*
X392593Y369528D01*
X389358Y371878D01*
X387961Y371657D01*
X386199Y369231D01*
X390533Y373496D02*
X390312Y374892D01*
X391487Y376509D01*
X392883Y376731D01*
X393692Y376143D01*
X393913Y374747D01*
X395310Y374968D01*
X396118Y374380D01*
X396340Y372984D01*
X395164Y371366D01*
X393768Y371145D01*
X392959Y371733D01*
X392738Y373129D01*
X391342Y372908D01*
X390533Y373496D01*
X392738Y373129D02*
X393913Y374747D01*
X365002Y289000D02*
X371000D01*
Y292999D01*
X365002Y298997D02*
Y294998D01*
X371000D01*
Y298997D01*
X368001Y294998D02*
Y296997D01*
X365002Y300996D02*
X371000D01*
Y303995D01*
X370000Y304995D01*
X366002D01*
X365002Y303995D01*
Y300996D01*
Y306994D02*
Y310993D01*
X366002D01*
X370000Y306994D01*
X371000D01*
X390632Y226495D02*
X395500Y230000D01*
X393163Y233245D01*
X384791Y234608D02*
X387128Y231363D01*
X391995Y234868D01*
X389659Y238113D01*
X389562Y233115D02*
X388393Y234738D01*
X383623Y236231D02*
X388491Y239735D01*
X386738Y242169D01*
X385343Y242396D01*
X382098Y240060D01*
X381871Y238664D01*
X383623Y236231D01*
X377782Y244343D02*
X379761Y243305D01*
X382552Y242851D01*
X384175Y244019D01*
X384402Y245414D01*
X383234Y247037D01*
X381838Y247264D01*
X381027Y246680D01*
X380800Y245284D01*
X382552Y242851D01*
X451042Y190831D02*
X453000Y196500D01*
X449221Y197806D01*
X441593Y194095D02*
X445372Y192789D01*
X447331Y198459D01*
X443551Y199764D01*
X446351Y195624D02*
X444462Y196277D01*
X439703Y194748D02*
X441661Y200417D01*
X438827Y201396D01*
X437555Y200778D01*
X436250Y196998D01*
X436868Y195727D01*
X439703Y194748D01*
X430254Y198012D02*
X434034Y196706D01*
X435013Y199541D01*
X432797Y199249D01*
X431852Y199575D01*
X431233Y200847D01*
X431886Y202736D01*
X433157Y203355D01*
X435047Y202702D01*
X435666Y201431D01*
X521397Y199810D02*
X519500Y205500D01*
X515706Y204236D01*
X511913Y196649D02*
X515706Y197913D01*
X513810Y203603D01*
X510016Y202339D01*
X514758Y200758D02*
X512861Y200126D01*
X510016Y196016D02*
X508119Y201707D01*
X505274Y200758D01*
X504642Y199494D01*
X505907Y195700D01*
X507171Y195068D01*
X510016Y196016D01*
X499584Y198861D02*
X501481Y193171D01*
X503378Y196965D01*
X499584Y195700D01*
X575810Y243917D02*
X571000Y247500D01*
X568611Y244293D01*
X569839Y235900D02*
X572227Y239107D01*
X567417Y242690D01*
X565028Y239483D01*
X569822Y240898D02*
X568628Y239295D01*
X568645Y234296D02*
X563834Y237879D01*
X562043Y235474D01*
X562247Y234075D01*
X565454Y231687D01*
X566853Y231891D01*
X568645Y234296D01*
X564260Y230083D02*
X564465Y228684D01*
X563270Y227081D01*
X561871Y226876D01*
X561070Y227473D01*
X560865Y228872D01*
X561462Y229674D01*
X560865Y228872D01*
X559466Y228668D01*
X558664Y229265D01*
X558460Y230664D01*
X559654Y232267D01*
X561053Y232472D01*
X587498Y311917D02*
X581500Y312000D01*
X581445Y308002D01*
X587360Y301922D02*
X587415Y305920D01*
X581417Y306002D01*
X581362Y302004D01*
X584416Y305961D02*
X584389Y303962D01*
X587332Y299922D02*
X581335Y300005D01*
X581294Y297006D01*
X582279Y295993D01*
X586278Y295938D01*
X587291Y296924D01*
X587332Y299922D01*
X581197Y290009D02*
X581252Y294007D01*
X585196Y289954D01*
X586195Y289940D01*
X587209Y290926D01*
X587236Y292925D01*
X586250Y293939D01*
X559874Y376996D02*
X555000Y373500D01*
X557331Y370251D01*
X565701Y368874D02*
X563370Y372123D01*
X558496Y368626D01*
X560827Y365377D01*
X560933Y370374D02*
X562099Y368750D01*
X566866Y367249D02*
X561993Y363753D01*
X563741Y361316D01*
X565136Y361086D01*
X568385Y363417D01*
X568614Y364812D01*
X566866Y367249D01*
X565489Y358879D02*
X566654Y357255D01*
X566072Y358067D01*
X570945Y361563D01*
X569550Y361793D01*
X501354Y410205D02*
X499500Y404500D01*
X503303Y403264D01*
X510861Y407115D02*
X507058Y408351D01*
X505204Y402646D01*
X509008Y401411D01*
X506131Y405499D02*
X508033Y404881D01*
X512762Y406497D02*
X510909Y400793D01*
X513761Y399866D01*
X515021Y400508D01*
X516257Y404311D01*
X515615Y405571D01*
X512762Y406497D01*
X518158Y403693D02*
X519418Y404335D01*
X521319Y403717D01*
X521961Y402458D01*
X520725Y398655D01*
X519466Y398013D01*
X517564Y398631D01*
X516922Y399890D01*
X518158Y403693D01*
X406681Y388865D02*
X405300Y389169D01*
X403615Y388094D01*
X403310Y386713D01*
X405462Y383343D01*
X406843Y383038D01*
X408528Y384114D01*
X408833Y385494D01*
X411056Y385728D02*
X412741Y386804D01*
X411898Y386265D01*
X408671Y391321D01*
X408366Y389941D01*
X412579Y392630D02*
X412884Y394011D01*
X414569Y395087D01*
X415949Y394782D01*
X418101Y391412D01*
X417796Y390031D01*
X416111Y388955D01*
X414731Y389260D01*
X412579Y392630D01*
X368023Y336874D02*
X366758Y336242D01*
X366126Y334345D01*
X366758Y333081D01*
X370552Y331816D01*
X371816Y332448D01*
X372448Y334345D01*
X371816Y335610D01*
X372448Y337506D02*
X373713Y338139D01*
X374345Y340035D01*
X373713Y341300D01*
X369919Y342564D01*
X368655Y341932D01*
X368023Y340035D01*
X368655Y338771D01*
X369603Y338455D01*
X370868Y339087D01*
X371816Y341932D01*
X369015Y265771D02*
X368371Y264513D01*
X368985Y262610D01*
X370243Y261965D01*
X374049Y263193D01*
X374693Y264451D01*
X374079Y266354D01*
X372821Y266999D01*
X368402Y267674D02*
X367143Y268318D01*
X366529Y270221D01*
X367174Y271480D01*
X368125Y271786D01*
X369384Y271142D01*
X370028Y272400D01*
X370980Y272707D01*
X372238Y272063D01*
X372852Y270160D01*
X372207Y268901D01*
X371256Y268595D01*
X369998Y269239D01*
X369353Y267981D01*
X368402Y267674D01*
X369998Y269239D02*
X369384Y271142D01*
X408305Y210391D02*
X408507Y208992D01*
X410108Y207794D01*
X411507Y207997D01*
X413902Y211199D01*
X413699Y212598D01*
X412098Y213796D01*
X410699Y213594D01*
X406105Y210787D02*
X402902Y213181D01*
X403500Y213982D01*
X409097Y214791D01*
X409696Y215591D01*
X478001Y189002D02*
X479001Y188002D01*
X481000D01*
X482000Y189002D01*
Y193000D01*
X481000Y194000D01*
X479001D01*
X478001Y193000D01*
X472003Y188002D02*
X474003Y189002D01*
X476002Y191001D01*
Y193000D01*
X475002Y194000D01*
X473003D01*
X472003Y193000D01*
Y192001D01*
X473003Y191001D01*
X476002D01*
X546626Y214610D02*
X548020Y214372D01*
X549651Y215528D01*
X549889Y216921D01*
X547578Y220184D01*
X546184Y220422D01*
X544553Y219267D01*
X544315Y217873D01*
X542309Y210327D02*
X545572Y212638D01*
X543839Y215086D01*
X542785Y213114D01*
X541969Y212537D01*
X540576Y212774D01*
X539420Y214406D01*
X539658Y215799D01*
X541290Y216955D01*
X542683Y216717D01*
X583362Y271053D02*
X584640Y271658D01*
X585312Y273541D01*
X584707Y274819D01*
X580941Y276164D01*
X579664Y275559D01*
X578991Y273676D01*
X579597Y272398D01*
X576974Y268027D02*
X582623Y266010D01*
X580807Y269843D01*
X579462Y266077D01*
X580076Y340986D02*
X580666Y342271D01*
X579972Y344146D01*
X578687Y344736D01*
X574937Y343347D01*
X574347Y342063D01*
X575042Y340188D01*
X576326Y339597D01*
X580770Y339111D02*
X582055Y338521D01*
X582750Y336646D01*
X582159Y335362D01*
X581222Y335014D01*
X579937Y335605D01*
X579590Y336542D01*
X579937Y335605D01*
X579347Y334320D01*
X578409Y333973D01*
X577125Y334563D01*
X576430Y336438D01*
X577021Y337722D01*
X538698Y391599D02*
X538498Y392999D01*
X536899Y394199D01*
X535499Y393999D01*
X533100Y390800D01*
X533300Y389400D01*
X534899Y388201D01*
X536299Y388401D01*
X540497Y384002D02*
X537298Y386401D01*
X542897Y387201D01*
X543496Y388001D01*
X543296Y389400D01*
X541697Y390600D01*
X540298Y390400D01*
X475528Y411475D02*
X474534Y412480D01*
X472535Y412492D01*
X471529Y411498D01*
X471506Y407500D01*
X472500Y406494D01*
X474499Y406482D01*
X475504Y407476D01*
X477498Y406465D02*
X479497Y406453D01*
X478498Y406459D01*
X478533Y412457D01*
X477527Y411463D01*
M02*
