G04*
G04 #@! TF.GenerationSoftware,Altium Limited,Altium Designer,18.1.11 (251)*
G04*
G04 Layer_Color=32896*
%FSLAX25Y25*%
%MOIN*%
G70*
G01*
G75*
%ADD14C,0.01000*%
%ADD23C,0.00394*%
%ADD24C,0.00787*%
D14*
X392501Y336150D02*
X395500D01*
Y334150D01*
X392501Y331151D02*
Y333151D01*
X395500D01*
Y331151D01*
X394001Y333151D02*
Y332151D01*
X392501Y330152D02*
X395500D01*
Y328652D01*
X395000Y328152D01*
X393001D01*
X392501Y328652D01*
Y330152D01*
X395500Y327152D02*
Y326153D01*
Y326653D01*
X392501D01*
X393001Y327152D01*
X397000Y344500D02*
X399999D01*
Y346000D01*
X399499Y346499D01*
X398499D01*
X398000Y346000D01*
Y344500D01*
Y345500D02*
X397000Y346499D01*
Y347499D02*
Y348499D01*
Y347999D01*
X399999D01*
X399499Y347499D01*
X385000Y311999D02*
Y309333D01*
X383667Y308000D01*
X382334Y309333D01*
Y311999D01*
X378335Y308000D02*
X381001D01*
X378335Y310666D01*
Y311332D01*
X379002Y311999D01*
X380335D01*
X381001Y311332D01*
X377003Y308000D02*
Y308666D01*
X376336D01*
Y308000D01*
X377003D01*
X373670Y311332D02*
X373004Y311999D01*
X371671D01*
X371005Y311332D01*
Y308666D01*
X371671Y308000D01*
X373004D01*
X373670Y308666D01*
Y311332D01*
X401500Y317999D02*
Y314000D01*
X398834D01*
X397501Y317999D02*
Y314666D01*
X396835Y314000D01*
X395502D01*
X394835Y314666D01*
Y317999D01*
X393503Y314000D02*
Y317999D01*
X392170Y316666D01*
X390837Y317999D01*
Y314000D01*
X389504Y317999D02*
Y314000D01*
X388171Y315333D01*
X386838Y314000D01*
Y317999D01*
X384839Y314000D02*
X383506D01*
X382839Y314666D01*
Y315999D01*
X383506Y316666D01*
X384839D01*
X385505Y315999D01*
Y314666D01*
X384839Y314000D01*
X381506Y316666D02*
Y314000D01*
Y315333D01*
X380840Y315999D01*
X380173Y316666D01*
X379507D01*
X377508Y314000D02*
X376175D01*
X376841D01*
Y317999D01*
X377508D01*
X371510D02*
Y314000D01*
X373509D01*
X374176Y314666D01*
Y315999D01*
X373509Y316666D01*
X371510D01*
D23*
X381043Y328732D02*
Y345268D01*
X373957Y328732D02*
Y345268D01*
D24*
X384752Y328000D02*
Y337449D01*
X391248D01*
Y328000D02*
Y337449D01*
M02*
