G04*
G04 #@! TF.GenerationSoftware,Altium Limited,Altium Designer,18.1.7 (191)*
G04*
G04 Layer_Color=32896*
%FSLAX25Y25*%
%MOIN*%
G70*
G01*
G75*
%ADD15C,0.01000*%
%ADD24C,0.00787*%
D15*
X385000Y311999D02*
Y309333D01*
X383667Y308000D01*
X382334Y309333D01*
Y311999D01*
X381001Y308000D02*
X379668D01*
X380335D01*
Y311999D01*
X381001Y311332D01*
X377669Y308000D02*
Y308666D01*
X377003D01*
Y308000D01*
X377669D01*
X374337D02*
X373004D01*
X373670D01*
Y311999D01*
X374337Y311332D01*
X401500Y317999D02*
Y314000D01*
X398834D01*
X397501Y317999D02*
Y314666D01*
X396835Y314000D01*
X395502D01*
X394835Y314666D01*
Y317999D01*
X393503Y314000D02*
Y317999D01*
X392170Y316666D01*
X390837Y317999D01*
Y314000D01*
X389504Y317999D02*
Y314000D01*
X388171Y315333D01*
X386838Y314000D01*
Y317999D01*
X384839Y314000D02*
X383506D01*
X382839Y314666D01*
Y315999D01*
X383506Y316666D01*
X384839D01*
X385505Y315999D01*
Y314666D01*
X384839Y314000D01*
X381506Y316666D02*
Y314000D01*
Y315333D01*
X380840Y315999D01*
X380173Y316666D01*
X379507D01*
X377508Y314000D02*
X376175D01*
X376841D01*
Y317999D01*
X377508D01*
X371510D02*
Y314000D01*
X373509D01*
X374176Y314666D01*
Y315999D01*
X373509Y316666D01*
X371510D01*
X392001Y337000D02*
X396000D01*
Y334334D01*
X392001Y330335D02*
Y333001D01*
X396000D01*
Y330335D01*
X394001Y333001D02*
Y331668D01*
X392001Y329003D02*
X396000D01*
Y327003D01*
X395334Y326337D01*
X392668D01*
X392001Y327003D01*
Y329003D01*
X396000Y325004D02*
Y323671D01*
Y324337D01*
X392001D01*
X392668Y325004D01*
D24*
X390248Y326850D02*
Y336299D01*
X383752D02*
X390248D01*
X383752Y326850D02*
Y336299D01*
X376835Y351209D02*
X381165D01*
X376835Y339791D02*
Y351209D01*
Y339791D02*
X381165D01*
Y351209D01*
X382543Y351445D02*
X384807D01*
M02*
