G04*
G04 #@! TF.GenerationSoftware,Altium Limited,Altium Designer,18.1.7 (191)*
G04*
G04 Layer_Physical_Order=1*
G04 Layer_Color=255*
%FSLAX23Y23*%
%MOIN*%
G70*
G01*
G75*
%ADD12C,0.010*%
%ADD15R,0.035X0.037*%
%ADD16R,0.057X0.039*%
%ADD17C,0.701*%
%ADD25C,0.134*%
%ADD26C,0.059*%
%ADD27R,0.059X0.059*%
%ADD28C,0.091*%
D12*
X3457Y4060D02*
X3555Y3962D01*
X3124Y4060D02*
X3457D01*
X3039Y4145D02*
X3124Y4060D01*
X3101Y4145D02*
X3156Y4090D01*
X3540D01*
X3625Y4005D01*
Y3760D02*
Y4005D01*
X3590Y3725D02*
X3625Y3760D01*
X3590Y3665D02*
Y3725D01*
X3274Y3601D02*
Y3607D01*
X3555Y3888D01*
X3490Y3565D02*
Y3665D01*
X3485Y3460D02*
X3590Y3565D01*
X3250Y3460D02*
X3485D01*
X3050Y3660D02*
X3250Y3460D01*
X2865Y3660D02*
X3050D01*
D15*
X3101Y4145D02*
D03*
X3039D02*
D03*
D16*
X3555Y3962D02*
D03*
Y3888D02*
D03*
D17*
X2865Y3660D02*
D03*
D25*
X3645Y4150D02*
D03*
X2440D02*
D03*
D26*
X3490Y3665D02*
D03*
X3590D02*
D03*
X3490Y3565D02*
D03*
D27*
X3590D02*
D03*
D28*
X3274Y3601D02*
D03*
Y3723D02*
D03*
X2456D02*
D03*
Y3601D02*
D03*
M02*
