G04*
G04 #@! TF.GenerationSoftware,Altium Limited,Altium Designer,18.1.7 (191)*
G04*
G04 Layer_Color=65535*
%FSLAX23Y23*%
%MOIN*%
G70*
G01*
G75*
%ADD10C,0.008*%
%ADD11C,0.004*%
%ADD12C,0.010*%
%ADD13C,0.030*%
%ADD14C,0.008*%
D10*
X3039Y4113D02*
X3133D01*
Y4177D01*
X3039D02*
X3133D01*
X3534Y3925D02*
X3576D01*
X3440Y3515D02*
Y3715D01*
Y3515D02*
X3640D01*
X3440Y3715D02*
X3640D01*
Y3515D02*
Y3715D01*
D11*
X2451Y3355D02*
X2668D01*
X2450Y3522D02*
X2451Y3355D01*
X2450Y3798D02*
Y3965D01*
X2648D01*
X3062Y3355D02*
X3280D01*
Y3522D01*
Y3798D02*
Y3965D01*
X3082D02*
X3280D01*
D12*
X3260Y4165D02*
X3250Y4175D01*
X3230D01*
X3220Y4165D01*
Y4125D01*
X3230Y4115D01*
X3250D01*
X3260Y4125D01*
Y4145D01*
X3240D01*
X3280Y4115D02*
Y4175D01*
X3310D01*
X3320Y4165D01*
Y4145D01*
X3310Y4135D01*
X3280D01*
X3300D02*
X3320Y4115D01*
X3380Y4175D02*
X3340D01*
Y4115D01*
X3380D01*
X3340Y4145D02*
X3360D01*
X3440Y4175D02*
X3400D01*
Y4115D01*
X3440D01*
X3400Y4145D02*
X3420D01*
X3460Y4115D02*
Y4175D01*
X3500Y4115D01*
Y4175D01*
X2695Y4165D02*
X2685Y4175D01*
X2665D01*
X2655Y4165D01*
Y4155D01*
X2665Y4145D01*
X2685D01*
X2695Y4135D01*
Y4125D01*
X2685Y4115D01*
X2665D01*
X2655Y4125D01*
X2755Y4175D02*
X2715D01*
Y4115D01*
X2755D01*
X2715Y4145D02*
X2735D01*
X2775Y4115D02*
Y4175D01*
X2805D01*
X2815Y4165D01*
Y4145D01*
X2805Y4135D01*
X2775D01*
X2795D02*
X2815Y4115D01*
X2835D02*
Y4155D01*
X2855Y4175D01*
X2875Y4155D01*
Y4115D01*
Y4145D01*
X2835D01*
D13*
X3030Y3188D02*
X3059Y3202D01*
X3101Y3245D01*
Y2945D01*
X3087Y3231D02*
Y2945D01*
X3030D02*
X3159D01*
D14*
X3610Y3485D02*
Y3502D01*
Y3493D01*
X3560D01*
X3568Y3485D01*
X3510Y3498D02*
Y3465D01*
X3477Y3498D01*
X3468D01*
X3460Y3490D01*
Y3473D01*
X3468Y3465D01*
X3510Y3750D02*
X3460D01*
X3485Y3725D01*
Y3758D01*
X3568Y3725D02*
X3560Y3733D01*
Y3750D01*
X3568Y3758D01*
X3577D01*
X3585Y3750D01*
Y3742D01*
Y3750D01*
X3593Y3758D01*
X3602D01*
X3610Y3750D01*
Y3733D01*
X3602Y3725D01*
M02*
