G04*
G04 #@! TF.GenerationSoftware,Altium Limited,Altium Designer,18.1.7 (191)*
G04*
G04 Layer_Color=65535*
%FSLAX25Y25*%
%MOIN*%
G70*
G01*
G75*
%ADD10C,0.00394*%
%ADD11C,0.00787*%
%ADD12C,0.00800*%
%ADD13C,0.01000*%
%ADD14C,0.03000*%
D10*
X280142Y336488D02*
X301815D01*
X279965Y353221D02*
X280142Y336488D01*
X279965Y380780D02*
Y397512D01*
X299847D01*
X341185Y336488D02*
X363035D01*
Y353221D01*
Y380780D02*
Y397512D01*
X343154D02*
X363035D01*
D11*
X242500Y349000D02*
Y369000D01*
Y349000D02*
X262500D01*
X242500Y369000D02*
X262500D01*
Y349000D02*
Y369000D01*
X301850Y411252D02*
X311299D01*
Y417748D01*
X301850D02*
X311299D01*
X245433Y393500D02*
X249567D01*
D12*
X249665Y348000D02*
X250498Y347167D01*
Y345501D01*
X249665Y344668D01*
X248832D01*
X247999Y345501D01*
Y346334D01*
Y345501D01*
X247166Y344668D01*
X246333D01*
X245500Y345501D01*
Y347167D01*
X246333Y348000D01*
X255500Y345501D02*
X260498D01*
X257999Y348000D01*
Y344668D01*
X255500Y370668D02*
Y374000D01*
X258832Y370668D01*
X259665D01*
X260498Y371501D01*
Y373167D01*
X259665Y374000D01*
X245500Y372000D02*
Y370334D01*
Y371167D01*
X250498D01*
X249665Y372000D01*
D13*
X317500Y417498D02*
Y411500D01*
X319499Y413499D01*
X321499Y411500D01*
Y417498D01*
X323498Y411500D02*
Y415499D01*
X325497Y417498D01*
X327497Y415499D01*
Y411500D01*
Y414499D01*
X323498D01*
X329496Y417498D02*
Y411500D01*
X333495D01*
X335494Y417498D02*
X339493D01*
X337493D01*
Y411500D01*
X344491Y417498D02*
X342492D01*
X341492Y416498D01*
Y412500D01*
X342492Y411500D01*
X344491D01*
X345491Y412500D01*
Y416498D01*
X344491Y417498D01*
X347490Y411500D02*
Y417498D01*
X351489Y411500D01*
Y417498D01*
X265999Y416498D02*
X264999Y417498D01*
X263000D01*
X262000Y416498D01*
Y412500D01*
X263000Y411500D01*
X264999D01*
X265999Y412500D01*
X267998Y411500D02*
Y415499D01*
X269997Y417498D01*
X271997Y415499D01*
Y411500D01*
Y414499D01*
X267998D01*
X273996Y417498D02*
Y411500D01*
X276995D01*
X277995Y412500D01*
Y416498D01*
X276995Y417498D01*
X273996D01*
X283993D02*
X279994D01*
Y411500D01*
X283993D01*
X279994Y414499D02*
X281994D01*
D14*
X303000Y318780D02*
X305856Y320209D01*
X310141Y324494D01*
Y294500D01*
X308713Y323065D02*
Y294500D01*
X303000D02*
X315854D01*
M02*
